# xmcd
#
# Track frame offsets:
# 150
# 15301
# 46149
# 66260
# 86546
# 107446
# 133165
# 156664
# 182716
# 200899
# 225717
# 241424
# 259664
#
# Disc length: 3935 seconds
#
# Revision: 0
# Processed by: cddbd v1.5PL3 Copyright (c) Steve Scherf et al.
# Submitted via: Axialis_AX_CDPlayer 2.6
#
DISCID=b00f5d0d
DTITLE=Tab Benoit - I Got Loaded
DYEAR=1900
DGENRE=
TTITLE0=Voodoo On The Bayou
TTITLE1=Cherry Tree Blues
TTITLE2=I Got Loaded
TTITLE3=Sufferin' Mind
TTITLE4=Down In The Swamp
TTITLE5=Laundromat Blues
TTITLE6=Matchbox Blues
TTITLE7=Raided That Joint
TTITLE8=So High
TTITLE9=I Put A Spell On You
TTITLE10=Somehow
TTITLE11=The Killing Floor
TTITLE12=Too Many Dirty Dishes
EXTD=
EXTT0=
EXTT1=
EXTT2=
EXTT3=
EXTT4=
EXTT5=
EXTT6=
EXTT7=
EXTT8=
EXTT9=
EXTT10=
EXTT11=
EXTT12=
PLAYORDER=
